<svg width="2543" height="2543" viewBox="0 0 2543 2543" fill="none" xmlns="http://www.w3.org/2000/svg">
<g clip-path="url(#clip0_1653_21535)">
<path d="M2543 0H0V2543H2543V0Z" stroke="#231F20" stroke-width="0.25" stroke-miterlimit="10"/>
<path d="M1099.34 1231.83L1223.18 1351.6L997.619 1566.49V1330.5L1099.34 1231.83Z" fill="#088141"/>
<path d="M1520.21 1239.71L1450.78 1133.42L1673.29 913.7L1006.52 248.451L337.202 908.36L997.619 1566.49L1002.96 1330.75L580.312 907.597L1005.25 496.648L1428.91 907.597L1308.12 1027.88L1520.21 1239.71Z" fill="#2B2E30"/>
<path d="M1441.63 632.698L1317.27 513.686L1541.57 297.531L1543.09 533.521L1441.63 632.698Z" fill="#2B2E30"/>
<path d="M1021.01 627.358L1090.69 733.147L869.706 954.134L1540.3 1615.57L2205.8 951.845L1541.57 297.531L1537.75 533.521L1962.69 954.134L1540.04 1367.37L1114.09 958.965L1234.12 837.918L1021.01 627.358Z" fill="#088141"/>
<path d="M197.845 2013.29H137.322C135.542 2013.29 134.779 2013.29 134.779 2011V1696.69C134.779 1696.69 134.779 1694.91 136.813 1694.91H241.33C269.696 1693.32 297.631 1702.39 319.655 1720.34C329.265 1729.13 336.821 1739.93 341.787 1751.98C346.753 1764.02 349.008 1777.01 348.391 1790.02C348.713 1808.86 343.796 1827.42 334.187 1843.63C324.578 1859.84 310.655 1873.06 293.971 1881.82C277.795 1890.5 259.689 1894.96 241.33 1894.79H200.388V2009.99C200.388 2012.53 199.625 2013.29 197.845 2013.29ZM241.33 1749.08H200.388V1839.86H241.33C247.004 1839.81 252.6 1838.53 257.735 1836.12C262.87 1833.7 267.423 1830.21 271.084 1825.87C279.787 1815.81 284.333 1802.81 283.799 1789.51C283.972 1784.08 283.048 1778.66 281.082 1773.59C279.116 1768.53 276.148 1763.91 272.355 1760.01C268.212 1756.15 263.319 1753.19 257.982 1751.31C252.644 1749.43 246.976 1748.67 241.33 1749.08Z" fill="#088141"/>
<path d="M465.878 2013.29H411.966C409.169 2013.29 407.643 2013.29 407.643 2010.24V1698.47C407.643 1695.93 409.169 1694.91 411.966 1694.91H460.537L551.323 1875.21L548.78 1698.47C548.78 1695.93 550.305 1694.91 553.611 1694.91H607.014C609.049 1694.91 610.066 1694.91 610.066 1698.47V2010.5C610.066 2012.28 610.066 2013.29 607.523 2013.29H560.223L466.895 1844.69L470.709 2008.97C470.709 2012.02 469.184 2013.29 465.878 2013.29Z" fill="#088141"/>
<path d="M769.003 2012.02H672.623C670.843 2012.02 669.826 2012.02 669.826 2009.73V1695.16C669.826 1695.16 669.826 1693.38 672.115 1693.38H772.563C791.294 1692.58 809.925 1696.52 826.729 1704.83C842.348 1712.51 855.807 1723.96 865.891 1738.14C875.4 1751.6 880.468 1767.69 880.387 1784.17V1915.64C880.458 1932.91 875.221 1949.77 865.383 1963.96C854.95 1978.63 841.063 1990.51 824.949 1998.54C807.576 2007.25 788.437 2011.86 769.003 2012.02ZM752.982 1749.08H715.346V1956.33H748.659C760.978 1956.66 772.997 1952.5 782.481 1944.63C786.692 1941.18 790.085 1936.83 792.416 1931.9C794.746 1926.98 795.956 1921.6 795.959 1916.15V1784.93C795.932 1780.03 794.797 1775.19 792.639 1770.79C790.481 1766.39 787.357 1762.53 783.498 1759.5C775.025 1752.27 764.111 1748.54 752.982 1749.08Z" fill="#088141"/>
<path d="M1059.92 2021.43C1044.48 2021.34 1029.35 2017.03 1016.18 2008.97C1002.73 2000.64 991.546 1989.11 983.632 1975.4C975.684 1961.46 971.561 1945.67 971.68 1929.63V1908.52C971.68 1907 971.68 1905.98 973.715 1905.98H1024.57C1024.57 1905.98 1026.35 1905.98 1026.35 1908.52V1929.63C1026.26 1939.07 1029.81 1948.18 1036.27 1955.06C1039.25 1958.54 1042.96 1961.32 1047.14 1963.21C1051.31 1965.1 1055.85 1966.05 1060.43 1965.99C1065.24 1966.16 1070.02 1965.24 1074.42 1963.3C1078.82 1961.36 1082.73 1958.46 1085.86 1954.8C1092.3 1947.91 1095.85 1938.81 1095.78 1929.37C1095.22 1922.94 1092.88 1916.8 1089.02 1911.63C1085.15 1906.46 1079.92 1902.48 1073.91 1900.13L1064.75 1894.53L1051.28 1887.16L1036.02 1878.77L1021.78 1870.63C1006.15 1862.03 993.214 1849.26 984.395 1833.76C975.963 1818.16 971.755 1800.62 972.189 1782.9C972.016 1766.58 976.421 1750.55 984.904 1736.61C992.674 1723.97 1003.41 1713.41 1016.18 1705.84C1029.43 1697.78 1044.66 1693.55 1060.18 1693.64C1075.93 1693.51 1091.42 1697.74 1104.93 1705.84C1118.29 1713.86 1129.47 1725.04 1137.48 1738.39C1145.69 1752.24 1149.91 1768.08 1149.69 1784.17V1821.55C1149.74 1821.79 1149.72 1822.05 1149.65 1822.28C1149.57 1822.52 1149.44 1822.73 1149.27 1822.91C1149.09 1823.09 1148.88 1823.22 1148.64 1823.29C1148.4 1823.36 1148.15 1823.38 1147.91 1823.33H1097.05C1096.81 1823.38 1096.56 1823.36 1096.32 1823.29C1096.08 1823.22 1095.87 1823.09 1095.69 1822.91C1095.52 1822.73 1095.39 1822.52 1095.31 1822.28C1095.24 1822.05 1095.22 1821.79 1095.27 1821.55V1784.17C1095.35 1779.47 1094.49 1774.8 1092.75 1770.43C1091 1766.06 1088.4 1762.09 1085.1 1758.74C1082.03 1755.43 1078.31 1752.8 1074.17 1751C1070.04 1749.19 1065.58 1748.26 1061.07 1748.26C1056.56 1748.26 1052.09 1749.19 1047.96 1751C1043.82 1752.8 1040.11 1755.43 1037.04 1758.74C1030.58 1765.62 1027.02 1774.73 1027.12 1784.17C1026.65 1793.09 1028.87 1801.95 1033.48 1809.6C1039.45 1817.88 1047.41 1824.52 1056.62 1828.93L1065.01 1833.25L1079.5 1841.13L1093.74 1849.02L1101.63 1853.08C1115.77 1860.8 1128.09 1871.46 1137.74 1884.36C1146.92 1897.82 1151.55 1913.86 1150.96 1930.14C1151.18 1946.52 1147.05 1962.66 1139.01 1976.93C1130.76 1990.41 1119.09 2001.46 1105.19 2008.97C1091.53 2017.19 1075.87 2021.51 1059.92 2021.43Z" fill="#231F20"/>
<path d="M1360 2016.85H1212.25C1210.98 2016.85 1210.21 2016.85 1210.21 2014.56V1700C1210.21 1699.52 1210.4 1699.07 1210.74 1698.74C1211.07 1698.4 1211.52 1698.22 1211.99 1698.22H1359.23C1359.23 1698.22 1361.01 1698.22 1361.01 1700.5V1751.36C1361.01 1751.84 1360.83 1752.29 1360.49 1752.62C1360.16 1752.96 1359.71 1753.14 1359.23 1753.14H1265.14V1824.6H1359.23C1359.48 1824.56 1359.73 1824.57 1359.97 1824.64C1360.2 1824.72 1360.42 1824.85 1360.59 1825.02C1360.77 1825.2 1360.9 1825.41 1360.97 1825.65C1361.04 1825.89 1361.06 1826.14 1361.01 1826.38V1877.24C1361.06 1877.49 1361.04 1877.74 1360.97 1877.97C1360.9 1878.21 1360.77 1878.43 1360.59 1878.6C1360.42 1878.78 1360.2 1878.91 1359.97 1878.98C1359.73 1879.05 1359.48 1879.07 1359.23 1879.02H1265.65V1958.87H1360C1360 1958.87 1361.78 1958.87 1361.78 1961.16V2013.55C1361.78 2016.34 1361.27 2016.85 1360 2016.85Z" fill="#231F20"/>
<path d="M1487.15 2016.85H1436.29C1436.29 2016.85 1434.51 2016.85 1434.51 2014.56V1700C1434.46 1699.75 1434.48 1699.5 1434.55 1699.26C1434.62 1699.03 1434.75 1698.81 1434.93 1698.64C1435.1 1698.46 1435.32 1698.33 1435.55 1698.26C1435.79 1698.18 1436.04 1698.17 1436.29 1698.22H1528.6C1544.68 1698.06 1560.5 1702.28 1574.37 1710.42C1587.92 1718.25 1599.28 1729.36 1607.43 1742.72C1615.83 1756.58 1620.15 1772.54 1619.89 1788.75C1619.99 1799.14 1618.26 1809.46 1614.81 1819.26C1611.87 1827.39 1607.85 1835.09 1602.85 1842.15C1599.34 1847.34 1595.15 1852.04 1590.39 1856.14C1606.84 1873.61 1615.94 1896.73 1615.82 1920.73V2014.56C1615.82 2016.09 1615.82 2016.85 1613.79 2016.85H1562.93C1561.66 2016.85 1561.15 2016.85 1561.15 2016.85V1920.73C1561.17 1909.99 1556.97 1899.67 1549.45 1891.99C1545.74 1888.13 1541.27 1885.07 1536.33 1883.02C1531.38 1880.96 1526.07 1879.95 1520.71 1880.04H1489.44V2014.56C1488.93 2016.09 1488.42 2016.85 1487.15 2016.85ZM1528.6 1753.14H1489.44V1825.11H1528.6C1533.34 1825.13 1538.03 1824.19 1542.4 1822.35C1546.77 1820.52 1550.72 1817.82 1554.03 1814.43C1557.59 1811.23 1560.42 1807.3 1562.35 1802.92C1564.28 1798.53 1565.26 1793.79 1565.22 1789C1565.34 1784.25 1564.45 1779.52 1562.61 1775.14C1560.77 1770.75 1558.02 1766.81 1554.54 1763.57C1551.16 1760.15 1547.11 1757.46 1542.65 1755.66C1538.19 1753.87 1533.4 1753.01 1528.6 1753.14Z" fill="#231F20"/>
<path d="M1779.08 2016.85H1722.88C1721.61 2016.85 1720.85 2016.85 1720.85 2014.56L1657.53 1700C1657.53 1700 1657.53 1698.22 1659.31 1698.22H1710.17C1710.68 1698.27 1711.16 1698.47 1711.56 1698.79C1711.96 1699.1 1712.27 1699.52 1712.46 1700L1749.84 1909.79L1786.46 1700C1786.57 1699.48 1786.87 1699.02 1787.28 1698.7C1787.7 1698.37 1788.22 1698.2 1788.75 1698.22H1839.61C1841.39 1698.22 1841.89 1698.22 1841.39 1700L1780.61 2014.56C1780.35 2016.09 1779.08 2016.85 1779.08 2016.85Z" fill="#231F20"/>
<path d="M1951.5 2016.85H1900.64C1900.33 2016.9 1900.01 2016.86 1899.71 2016.76C1899.42 2016.66 1899.15 2016.5 1898.93 2016.28C1898.71 2016.05 1898.54 2015.78 1898.44 2015.49C1898.34 2015.19 1898.31 2014.88 1898.35 2014.56V1700C1898.35 1699.74 1898.4 1699.48 1898.5 1699.25C1898.61 1699.02 1898.76 1698.81 1898.96 1698.64C1899.15 1698.47 1899.38 1698.34 1899.62 1698.27C1899.87 1698.2 1900.13 1698.18 1900.38 1698.22H1951.24C1951.72 1698.22 1952.17 1698.4 1952.5 1698.74C1952.84 1699.07 1953.02 1699.52 1953.02 1700V2014.56C1953.28 2016.09 1952.77 2016.85 1951.5 2016.85Z" fill="#231F20"/>
<path d="M2109.67 2021.69C2093.27 2021.95 2077.13 2017.54 2063.14 2008.97C2049.57 2000.75 2038.43 1989.08 2030.84 1975.15C2022.71 1960.82 2018.58 1944.57 2018.89 1928.1V1785.69C2018.74 1769.6 2022.77 1753.74 2030.59 1739.67C2038.16 1725.88 2049.2 1714.3 2062.63 1706.1C2076.39 1698.03 2092.06 1693.78 2108.02 1693.78C2123.98 1693.78 2139.65 1698.03 2153.41 1706.1C2167.04 1714.47 2178.28 1726.22 2186.03 1740.21C2193.78 1754.2 2197.79 1769.95 2197.66 1785.95V1805.53C2197.71 1805.77 2197.69 1806.02 2197.62 1806.26C2197.54 1806.5 2197.42 1806.71 2197.24 1806.89C2197.06 1807.06 2196.85 1807.19 2196.61 1807.27C2196.38 1807.34 2196.12 1807.36 2195.88 1807.31H2145.02C2144.75 1807.49 2144.44 1807.58 2144.12 1807.57C2143.79 1807.56 2143.49 1807.45 2143.23 1807.25C2142.98 1807.05 2142.79 1806.78 2142.7 1806.47C2142.61 1806.16 2142.62 1805.83 2142.73 1805.53V1784.68C2142.7 1775.31 2139.26 1766.27 2133.07 1759.25C2129.94 1755.61 2126.02 1752.74 2121.62 1750.84C2117.21 1748.95 2112.43 1748.08 2107.64 1748.31C2102.8 1747.88 2097.93 1748.67 2093.48 1750.63C2089.03 1752.59 2085.16 1755.64 2082.21 1759.5C2076.44 1766.72 2073.3 1775.69 2073.31 1784.93V1927.59C2073.14 1932.79 2074.02 1937.97 2075.9 1942.82C2077.78 1947.67 2080.61 1952.09 2084.24 1955.82C2087.25 1959.32 2090.98 1962.12 2095.17 1964.04C2099.36 1965.97 2103.92 1966.96 2108.53 1966.96C2113.14 1966.96 2117.7 1965.97 2121.89 1964.04C2126.08 1962.12 2129.81 1959.32 2132.81 1955.82C2138.8 1948.67 2142.21 1939.71 2142.48 1930.39V1907.25C2142.43 1907.01 2142.45 1906.76 2142.52 1906.52C2142.59 1906.28 2142.72 1906.07 2142.9 1905.89C2143.07 1905.72 2143.29 1905.59 2143.53 1905.51C2143.76 1905.44 2144.01 1905.42 2144.26 1905.47H2195.12C2195.12 1905.47 2196.9 1905.47 2196.9 1907.25V1928.36C2197.29 1944.39 2193.51 1960.25 2185.94 1974.38C2178.36 1988.51 2167.24 2000.43 2153.67 2008.97C2140.48 2017.24 2125.24 2021.65 2109.67 2021.69Z" fill="#231F20"/>
<path d="M2406.7 2016.85H2258.69C2258.69 2016.85 2256.91 2016.85 2256.91 2014.56V1700C2256.87 1699.75 2256.88 1699.5 2256.95 1699.26C2257.03 1699.03 2257.16 1698.81 2257.33 1698.64C2257.51 1698.46 2257.72 1698.33 2257.96 1698.26C2258.2 1698.18 2258.45 1698.17 2258.69 1698.22H2405.68C2405.68 1698.22 2407.46 1698.22 2407.46 1700.5V1751.36C2407.5 1751.61 2407.49 1751.86 2407.42 1752.1C2407.34 1752.33 2407.21 1752.55 2407.04 1752.72C2406.86 1752.9 2406.65 1753.03 2406.41 1753.1C2406.17 1753.18 2405.92 1753.19 2405.68 1753.14H2313.11V1824.6H2406.95C2406.95 1824.6 2408.73 1824.6 2408.73 1826.38V1877.24C2408.73 1877.71 2408.54 1878.17 2408.21 1878.5C2407.87 1878.84 2407.42 1879.02 2406.95 1879.02H2313.11V1958.87H2407.46C2407.46 1958.87 2409.24 1958.87 2409.24 1961.16V2013.55C2409.68 2013.88 2409.96 2014.38 2410.03 2014.93C2410.11 2015.48 2409.96 2016.03 2409.62 2016.47C2409.28 2016.91 2408.79 2017.2 2408.24 2017.27C2407.69 2017.34 2407.13 2017.19 2406.7 2016.85Z" fill="#231F20"/>
<path d="M721.195 2127.98H751.202C754.668 2127.77 758.139 2128.28 761.403 2129.46C764.667 2130.65 767.653 2132.49 770.179 2134.87C772.704 2137.25 774.715 2140.13 776.087 2143.32C777.46 2146.5 778.164 2149.94 778.158 2153.41C778.685 2157.88 777.788 2162.4 775.596 2166.32C773.405 2170.25 770.029 2173.39 765.952 2175.28C770.835 2177.39 774.934 2180.98 777.671 2185.54C780.409 2190.1 781.646 2195.41 781.21 2200.71C781.519 2204.79 780.939 2208.88 779.511 2212.71C778.083 2216.54 775.841 2220.01 772.939 2222.89C770.037 2225.77 766.545 2227.98 762.705 2229.38C758.864 2230.77 754.766 2231.32 750.694 2230.97H721.195V2127.98ZM746.625 2169.69C758.831 2169.69 762.391 2164.86 762.391 2155.19C762.597 2153.22 762.355 2151.22 761.682 2149.35C761.01 2147.48 759.925 2145.79 758.508 2144.39C757.091 2143 755.378 2141.94 753.497 2141.3C751.616 2140.67 749.614 2140.46 747.642 2140.7H736.453V2169.69H746.625ZM736.453 2218.51H748.659C758.831 2218.51 764.426 2212.92 764.426 2200.71C764.426 2188.51 759.34 2182.4 746.371 2182.4H736.453V2218.51Z" fill="#9F9C9F"/>
<path d="M843.767 2127.98V2199.44C843.767 2208.85 846.31 2219.28 858.262 2219.28C870.215 2219.28 873.012 2210.63 873.012 2199.44V2127.98H889.033V2199.7C889.033 2218.51 881.912 2233.01 858.008 2233.01C834.104 2233.01 827.492 2219.28 827.492 2199.95V2127.98H843.767Z" fill="#9F9C9F"/>
<path d="M950.828 2203C950.828 2212.16 955.66 2220.04 965.832 2220.04C976.004 2220.04 979.564 2214.19 979.564 2205.04C979.564 2195.88 975.241 2190.54 962.017 2184.18C944.725 2176.05 937.858 2168.67 937.858 2153.41C937.627 2149.77 938.183 2146.12 939.489 2142.71C940.794 2139.3 942.819 2136.21 945.425 2133.65C948.03 2131.09 951.156 2129.13 954.59 2127.89C958.023 2126.64 961.684 2126.16 965.323 2126.46C969.138 2126.01 973.005 2126.43 976.634 2127.69C980.263 2128.95 983.56 2131.01 986.276 2133.73C988.992 2136.45 991.058 2139.74 992.318 2143.37C993.578 2147 993.999 2150.87 993.55 2154.68H977.784C977.784 2149.09 975.749 2139.17 965.069 2139.17C954.388 2139.17 953.371 2144.77 953.371 2152.14C953.371 2159.52 956.931 2164.35 969.392 2169.94C987.701 2178.59 994.822 2186.98 994.822 2203.76C995.009 2207.66 994.37 2211.56 992.947 2215.2C991.524 2218.83 989.349 2222.13 986.564 2224.86C983.779 2227.6 980.447 2229.72 976.786 2231.08C973.126 2232.44 969.219 2233.01 965.323 2232.75C961.287 2233.13 957.217 2232.63 953.395 2231.28C949.573 2229.93 946.09 2227.76 943.187 2224.93C940.285 2222.1 938.032 2218.67 936.585 2214.89C935.138 2211.1 934.531 2207.05 934.807 2203H950.828Z" fill="#9F9C9F"/>
<path d="M1080.52 2127.98V2231.23H1064.5V2127.98H1080.52Z" fill="#9F9C9F"/>
<path d="M1148.93 2231.23V2127.98H1168.76C1192.67 2190.03 1196.74 2200.46 1198.01 2204.27C1198.01 2191.3 1198.01 2176.05 1198.01 2159.26V2127.98H1212.5V2231.23H1194.7C1169.27 2165.62 1165.97 2154.94 1164.69 2150.62C1164.69 2163.33 1164.69 2179.1 1164.69 2197.66V2231.23H1148.93Z" fill="#9F9C9F"/>
<path d="M1309.39 2183.93H1275.82V2217.24H1313.46L1311.42 2231.23H1260.56V2127.98H1311.42V2141.97H1275.82V2169.94H1309.39V2183.93Z" fill="#9F9C9F"/>
<path d="M1379.32 2203C1379.32 2212.16 1384.15 2220.04 1394.33 2220.04C1404.5 2220.04 1408.06 2214.19 1408.06 2205.04C1408.06 2195.88 1403.74 2190.54 1390.26 2184.18C1376.78 2177.83 1364.83 2168.67 1364.83 2153.41C1365.49 2146.42 1368.74 2139.93 1373.94 2135.2C1379.13 2130.48 1385.91 2127.86 1392.93 2127.86C1399.95 2127.86 1406.72 2130.48 1411.92 2135.2C1417.11 2139.93 1420.36 2146.42 1421.03 2153.41H1405.26C1405.26 2147.82 1403.23 2137.9 1392.8 2137.9C1391.12 2137.81 1389.44 2138.09 1387.88 2138.73C1386.32 2139.36 1384.91 2140.33 1383.77 2141.57C1382.63 2142.81 1381.78 2144.29 1381.27 2145.89C1380.77 2147.5 1380.62 2149.2 1380.85 2150.87C1380.85 2159.01 1384.66 2163.08 1396.87 2168.67C1415.43 2177.32 1422.3 2185.71 1422.3 2202.49C1422.55 2206.5 1421.92 2210.51 1420.45 2214.24C1418.98 2217.98 1416.71 2221.34 1413.8 2224.11C1410.9 2226.87 1407.42 2228.96 1403.61 2230.24C1399.81 2231.51 1395.77 2231.94 1391.78 2231.48C1387.74 2231.91 1383.65 2231.43 1379.81 2230.1C1375.96 2228.76 1372.46 2226.6 1369.55 2223.76C1366.64 2220.92 1364.39 2217.48 1362.95 2213.67C1361.52 2209.86 1360.95 2205.78 1361.27 2201.73L1379.32 2203Z" fill="#9F9C9F"/>
<path d="M1486.38 2203C1486.38 2212.16 1491.22 2220.04 1501.39 2220.04C1511.56 2220.04 1515.12 2214.19 1515.12 2205.04C1515.12 2195.88 1510.8 2190.54 1497.32 2184.18C1483.84 2177.83 1471.89 2168.67 1471.89 2153.41C1472.55 2146.42 1475.8 2139.93 1481 2135.2C1486.19 2130.48 1492.97 2127.86 1499.99 2127.86C1507.01 2127.86 1513.78 2130.48 1518.98 2135.2C1524.17 2139.93 1527.42 2146.42 1528.09 2153.41H1512.58C1512.58 2147.82 1510.29 2137.9 1499.86 2137.9C1498.18 2137.81 1496.5 2138.09 1494.94 2138.73C1493.38 2139.36 1491.97 2140.33 1490.83 2141.57C1489.69 2142.81 1488.84 2144.29 1488.33 2145.89C1487.83 2147.5 1487.68 2149.2 1487.91 2150.87C1487.91 2159.01 1491.72 2163.08 1504.18 2168.67C1522.49 2177.32 1529.61 2185.71 1529.61 2202.49C1529.86 2206.5 1529.23 2210.51 1527.76 2214.24C1526.3 2217.98 1524.03 2221.34 1521.12 2224.11C1518.21 2226.87 1514.73 2228.96 1510.93 2230.24C1507.12 2231.51 1503.08 2231.94 1499.1 2231.48C1495.06 2231.86 1490.99 2231.36 1487.17 2230.01C1483.35 2228.66 1479.87 2226.49 1476.96 2223.66C1474.06 2220.83 1471.81 2217.4 1470.36 2213.62C1468.91 2209.83 1468.31 2205.77 1468.58 2201.73L1486.38 2203Z" fill="#9F9C9F"/>
<path d="M1702.79 2127.98H1732.29C1736.26 2127.7 1740.24 2128.29 1743.96 2129.71C1747.67 2131.14 1751.03 2133.36 1753.79 2136.22C1756.56 2139.08 1758.66 2142.51 1759.95 2146.27C1761.25 2150.03 1761.7 2154.03 1761.28 2157.99C1761.73 2162.1 1761.25 2166.25 1759.87 2170.14C1758.49 2174.04 1756.25 2177.57 1753.32 2180.48C1750.39 2183.39 1746.84 2185.6 1742.93 2186.94C1739.03 2188.29 1734.87 2188.74 1730.77 2188.25H1718.81V2231.23H1702.79V2127.98ZM1718.81 2175.28H1728.22C1739.16 2175.28 1744.5 2169.69 1744.5 2157.74C1744.5 2145.78 1738.9 2140.95 1729.24 2140.95H1718.05L1718.81 2175.28Z" fill="#9F9C9F"/>
<path d="M1821.3 2203L1815.45 2231.23H1799.43L1824.86 2127.98H1845.71L1871.14 2231.23H1854.36L1848.25 2203H1821.3ZM1843.42 2189.01C1838.84 2167.14 1835.28 2152.14 1833.76 2142.99C1832.23 2152.14 1828.67 2168.42 1824.6 2189.01H1843.42Z" fill="#9F9C9F"/>
<path d="M1934.46 2186.98V2232.25H1918.69V2127.98H1948.7C1952.47 2127.55 1956.29 2127.96 1959.87 2129.19C1963.46 2130.42 1966.73 2132.44 1969.43 2135.1C1972.14 2137.76 1974.22 2140.99 1975.52 2144.55C1976.81 2148.12 1977.29 2151.93 1976.93 2155.7C1977.47 2160.56 1976.46 2165.47 1974.03 2169.72C1971.61 2173.97 1967.91 2177.34 1963.45 2179.35C1972.1 2182.91 1975.4 2190.29 1975.4 2204.78V2208.85C1975.18 2216.17 1975.69 2223.5 1976.93 2230.72H1961.42C1959.9 2223.53 1959.3 2216.19 1959.64 2208.85V2205.04C1959.64 2191.05 1956.58 2185.45 1944.12 2185.45L1934.46 2186.98ZM1934.46 2173.76H1944.89C1956.33 2173.76 1960.91 2168.16 1960.91 2157.23C1960.91 2146.29 1956.58 2141.97 1946.41 2141.97H1934.46V2173.76Z" fill="#9F9C9F"/>
<path d="M2046.35 2141.97H2023.97V2127.98H2084.24V2141.97H2061.86V2231.23H2045.84L2046.35 2141.97Z" fill="#9F9C9F"/>
<path d="M2131.29 2231.23V2127.98H2149.85C2173.5 2190.03 2177.57 2200.46 2178.84 2204.27C2178.84 2191.3 2178.84 2176.05 2178.84 2159.26V2127.98H2193.59V2231.23H2175.54C2150.11 2165.62 2147.05 2154.94 2145.78 2150.62C2145.78 2163.33 2145.78 2179.1 2145.78 2197.66V2231.23H2131.29Z" fill="#9F9C9F"/>
<path d="M2296.58 2183.93H2262.25V2217.24H2299.89L2297.86 2231.23H2247V2127.98H2297.86V2141.97H2262.25V2169.94H2295.82L2296.58 2183.93Z" fill="#9F9C9F"/>
<path d="M2366.01 2186.98V2232.25H2349.99V2127.98H2379.99C2383.78 2127.51 2387.63 2127.89 2391.25 2129.1C2394.87 2130.31 2398.17 2132.33 2400.9 2134.99C2403.64 2137.65 2405.74 2140.9 2407.05 2144.48C2408.36 2148.07 2408.85 2151.9 2408.48 2155.7C2409.02 2160.56 2408 2165.47 2405.58 2169.72C2403.16 2173.97 2399.45 2177.34 2395 2179.35C2403.39 2182.91 2406.95 2190.29 2406.95 2204.78V2208.85C2406.39 2216.13 2406.39 2223.44 2406.95 2230.72H2391.44C2389.92 2223.53 2389.32 2216.19 2389.66 2208.85V2205.04C2389.66 2191.05 2386.61 2185.45 2374.14 2185.45L2366.01 2186.98ZM2366.01 2173.76H2376.18C2387.88 2173.76 2392.2 2168.16 2392.2 2157.23C2392.2 2146.29 2387.88 2141.97 2377.71 2141.97H2366.01V2173.76Z" fill="#9F9C9F"/>
<path d="M161.48 2231.23V2193.59C161.603 2192.58 161.603 2191.55 161.48 2190.54L136.05 2127.98H151.563C157.92 2144.51 166.058 2165.87 169.109 2176.55C172.669 2164.86 180.807 2143.75 186.656 2127.98H203.44L178.01 2190.79C177.692 2191.87 177.692 2193.02 178.01 2194.1V2231.23H161.48Z" fill="#9F9C9F"/>
<path d="M324.741 2178.84C324.741 2215.72 315.078 2233.01 291.682 2233.01C268.286 2233.01 259.64 2215.97 259.64 2178.59C259.64 2141.21 271.592 2127.73 292.445 2127.73C313.297 2127.73 324.741 2143.24 324.741 2178.84ZM276.17 2178.84C276.17 2204.27 280.493 2219.53 292.191 2219.53C303.888 2219.53 308.211 2205.8 308.211 2178.84C308.211 2151.89 303.888 2140.19 292.191 2140.19C280.493 2140.19 276.17 2153.67 276.17 2178.59V2178.84Z" fill="#9F9C9F"/>
<path d="M399.505 2127.98V2199.44C399.505 2208.85 401.794 2219.28 414 2219.28C426.207 2219.28 428.75 2210.63 428.75 2199.44V2127.98H444.771V2199.7C444.771 2218.51 437.65 2233.01 413.746 2233.01C389.842 2233.01 383.23 2219.28 383.23 2199.95V2127.98H399.505Z" fill="#9F9C9F"/>
<path d="M522.332 2186.98V2232.25H507.583V2127.98H537.59C541.378 2127.51 545.225 2127.89 548.844 2129.1C552.464 2130.31 555.764 2132.33 558.5 2134.99C561.236 2137.65 563.337 2140.9 564.648 2144.48C565.959 2148.07 566.445 2151.9 566.072 2155.7C566.613 2160.56 565.6 2165.47 563.178 2169.72C560.757 2173.97 557.051 2177.34 552.594 2179.35C560.986 2182.91 564.546 2190.29 564.546 2204.78V2208.85C564.328 2216.17 564.839 2223.5 566.072 2230.72H550.305C548.892 2223.52 548.38 2216.17 548.78 2208.85V2205.04C548.78 2191.05 545.474 2185.45 533.013 2185.45L522.332 2186.98ZM522.332 2173.76H533.013C544.711 2173.76 549.288 2168.16 549.288 2157.23C549.569 2155.2 549.386 2153.14 548.752 2151.19C548.118 2149.25 547.05 2147.48 545.629 2146.01C544.208 2144.54 542.471 2143.41 540.549 2142.71C538.628 2142.01 536.572 2141.76 534.539 2141.97H522.841L522.332 2173.76Z" fill="#9F9C9F"/>
</g>
<defs>
<clipPath id="clip0_1653_21535">
<rect width="2543" height="2543" fill="white"/>
</clipPath>
</defs>
</svg>
